HIERARCHY
ROOT Hips
{
	OFFSET 0.000000 0.000000 0.000000
	CHANNELS 6 Xposition Yposition Zposition Zrotation Yrotation Xrotation 
	JOINT LHipJoint
	{
		OFFSET 0.000000 0.000000 0.000000
		CHANNELS 3 Zrotation Yrotation Xrotation
		JOINT LeftUpLeg
		{
			OFFSET 1.363060 -1.794630 0.839290
			CHANNELS 3 Zrotation Yrotation Xrotation
			JOINT LeftLeg
			{
				OFFSET 2.448110 -6.726130 0.000000
				CHANNELS 3 Zrotation Yrotation Xrotation
				JOINT LeftFoot
				{
					OFFSET 2.562200 -7.039590 0.000000
					CHANNELS 3 Zrotation Yrotation Xrotation
					JOINT LeftToeBase
					{
						OFFSET 0.157640 -0.433110 2.322550
						CHANNELS 3 Zrotation Yrotation Xrotation
						End Site
						{
							OFFSET 0.000000 0.000000 0.000000
						}
					}
				}
			}
		}
	}
	JOINT RHipJoint
	{
		OFFSET 0.000000 0.000000 0.000000
		CHANNELS 3 Zrotation Yrotation Xrotation
		JOINT RightUpLeg
		{
			OFFSET -1.305520 -1.794630 0.839290
			CHANNELS 3 Zrotation Yrotation Xrotation
			JOINT RightLeg
			{
				OFFSET -2.542530 -6.985550 0.000000
				CHANNELS 3 Zrotation Yrotation Xrotation
				JOINT RightFoot
				{
					OFFSET -2.568260 -7.056230 0.000000
					CHANNELS 3 Zrotation Yrotation Xrotation
					JOINT RightToeBase
					{
						OFFSET -0.164730 -0.452590 2.363150
						CHANNELS 3 Zrotation Yrotation Xrotation
						End Site
						{
							OFFSET 0.000000 0.000000 0.000000
						}
					}
				}
			}
		}
	}
	JOINT LowerBack
	{
		OFFSET 0.000000 0.000000 0.000000
		CHANNELS 3 Zrotation Yrotation Xrotation
		JOINT Spine
		{
			OFFSET 0.028270 2.035590 -0.193380
			CHANNELS 3 Zrotation Yrotation Xrotation
			JOINT Spine1
			{
				OFFSET 0.056720 2.048850 -0.042750
				CHANNELS 3 Zrotation Yrotation Xrotation
				JOINT Neck
				{
					OFFSET 0.000000 0.000000 0.000000
					CHANNELS 3 Zrotation Yrotation Xrotation
					JOINT Neck1
					{
						OFFSET -0.054170 1.746240 0.172020
						CHANNELS 3 Zrotation Yrotation Xrotation
						JOINT Head
						{
							OFFSET 0.104070 1.761360 -0.123970
							CHANNELS 3 Zrotation Yrotation Xrotation
							End Site
							{
								OFFSET 0.000000 0.000000 0.000000
							}
						}
					}
				}
				JOINT LeftShoulder
				{
					OFFSET 0.000000 0.000000 0.000000
					CHANNELS 3 Zrotation Yrotation Xrotation
					JOINT LeftArm
					{
						OFFSET 3.362410 1.200890 -0.311210
						CHANNELS 3 Zrotation Yrotation Xrotation
						JOINT LeftForeArm
						{
							OFFSET 4.983000 -0.000000 -0.000000
							CHANNELS 3 Zrotation Yrotation Xrotation
							JOINT LeftHand
							{
								OFFSET 3.483560 -0.000000 -0.000000
								CHANNELS 3 Zrotation Yrotation Xrotation
								JOINT LeftFingerBase
								{
									OFFSET 0.000000 0.000000 0.000000
									CHANNELS 3 Zrotation Yrotation Xrotation
									JOINT LeftHandIndex1
									{
										OFFSET 0.715260 -0.000000 -0.000000
										CHANNELS 3 Zrotation Yrotation Xrotation
										End Site
										{
											OFFSET 0.000000 0.000000 0.000000
										}
									}
								}
								JOINT LThumb
								{
									OFFSET 0.000000 0.000000 0.000000
									CHANNELS 3 Zrotation Yrotation Xrotation
									End Site
									{
										OFFSET 0.000000 0.000000 0.000000
									}
								}
							}
						}
					}
				}
				JOINT RightShoulder
				{
					OFFSET 0.000000 0.000000 0.000000
					CHANNELS 3 Zrotation Yrotation Xrotation
					JOINT RightArm
					{
						OFFSET -3.136600 1.374050 -0.404650
						CHANNELS 3 Zrotation Yrotation Xrotation
						JOINT RightForeArm
						{
							OFFSET -5.241900 -0.000000 -0.000000
							CHANNELS 3 Zrotation Yrotation Xrotation
							JOINT RightHand
							{
								OFFSET -3.444170 -0.000000 -0.000000
								CHANNELS 3 Zrotation Yrotation Xrotation
								JOINT RightFingerBase
								{
									OFFSET 0.000000 0.000000 0.000000
									CHANNELS 3 Zrotation Yrotation Xrotation
									JOINT RightHandIndex1
									{
										OFFSET -0.622530 -0.000000 -0.000000
										CHANNELS 3 Zrotation Yrotation Xrotation
										End Site
										{
											OFFSET 0.000000 0.000000 0.000000
										}
									}
								}
								JOINT RThumb
								{
									OFFSET 0.000000 0.000000 0.000000
									CHANNELS 3 Zrotation Yrotation Xrotation
									End Site
									{
										OFFSET 0.000000 0.000000 0.000000
									}
								}
							}
						}
					}
				}
			}
		}
	}
}
MOTION
Frames: 5
Frame Time: 0.008333
1.708583 17.301571 -0.120175 169.364075 -57.442195 -153.710942 -8.298166 -0.140189 4.274633 -11.793196 -23.260163 -34.352873 1.360721 1.742443 53.264268 5.465158 36.231314 12.135187 14.104500 -0.000000 -46.964900 9.858944 -0.071960 3.605961 5.990950 13.137833 -23.963830 0.674709 -0.198831 18.474649 -3.631370 -13.967404 -12.102405 0.101100 0.000000 -32.629300 -3.897617 -0.762384 -7.330242 -1.650842 -0.743334 -3.783181 -7.260476 -0.703079 1.983338 8.384116 -12.977976 -8.490664 -2.240197 -0.167486 -0.196101 0.000000 0.000000 0.000000 -1.749167 18.612745 1.969314 -64.749440 9.673147 -9.820558 -3.515536 -29.769143 0.018086 9.749124 -3.754867 -0.318674 -0.115796 -0.053722 -0.000000 0.000000 0.000000 0.000000 0.000000 0.000000 0.000000 4.274606 -7.389965 -4.778045 81.884594 17.244112 18.238115 -179.416686 72.589544 179.891212 -10.017762 12.273677 -1.164017 0.114744 -0.810929 -0.000000 0.000000 0.000000 0.000000 0.000000 0.000000 0.000000 
1.728070 17.300654 -0.122976 169.095707 -56.756004 -153.572232 -8.237137 -0.313674 4.412111 -11.617329 -24.843407 -35.798947 1.486657 1.898707 56.360424 5.240403 35.033185 14.750860 14.813700 -0.000000 -46.819500 9.982634 0.032998 3.454886 5.592311 13.053333 -24.054404 0.653824 -0.270784 18.924996 -3.506627 -13.450381 -12.068451 0.108299 0.000000 -33.585000 -4.034291 -0.671259 -7.191977 -1.679720 -0.635839 -3.760947 -7.220397 -0.596006 1.967700 8.218413 -12.892956 -8.496709 -2.226501 -0.166053 -0.202653 0.000000 0.000000 0.000000 -1.871601 18.828404 1.984093 -64.958760 9.852530 -9.973287 -3.508074 -29.721645 0.018195 9.686590 -3.720830 -0.313587 -0.114428 -0.055803 -0.000000 0.000000 0.000000 0.000000 0.000000 0.000000 0.000000 4.031990 -7.243009 -4.797328 81.866394 17.524166 18.499096 -179.403424 72.325096 179.890658 -10.011796 12.223470 -1.159136 0.114989 -0.814030 -0.000000 0.000000 0.000000 0.000000 0.000000 0.000000 0.000000 
1.746614 17.299608 -0.124507 168.847197 -56.046214 -153.467103 -8.182848 -0.481647 4.529602 -11.497459 -26.241451 -37.256318 1.602484 2.055980 59.421004 5.015428 33.598463 17.115860 15.131800 0.000001 -46.226800 10.107478 0.129217 3.308117 5.203216 12.912189 -24.149721 0.641661 -0.341889 19.359719 -3.364264 -12.855514 -12.010306 0.109799 0.000000 -34.637900 -4.165750 -0.571629 -7.050023 -1.708639 -0.520399 -3.738772 -7.180508 -0.480918 1.953292 8.051842 -12.806830 -8.500745 -2.214443 -0.164792 -0.208758 0.000000 0.000000 0.000000 -1.989643 19.056442 1.995661 -65.185915 10.025787 -10.131372 -3.499481 -29.683398 0.018309 9.613451 -3.695092 -0.308800 -0.113065 -0.057882 -0.000000 0.000000 0.000000 0.000000 0.000000 0.000000 0.000000 3.797937 -7.091191 -4.818366 81.835308 17.810298 18.740389 -179.389929 72.063135 179.890088 -10.009844 12.173869 -1.154754 0.115317 -0.817028 -0.000000 0.000000 0.000000 0.000000 0.000000 0.000000 0.000000 
1.764189 17.298578 -0.125258 168.619217 -55.310792 -153.387860 -8.135419 -0.644443 4.625650 -11.444648 -27.434202 -38.728950 1.713753 2.214489 62.438706 4.803162 32.044015 19.208032 15.141400 -0.000001 -45.540800 10.232922 0.215227 3.173554 4.820766 12.730156 -24.260259 0.636199 -0.410790 19.768968 -3.207196 -12.196576 -11.916141 0.102500 -0.000000 -35.850100 -4.296031 -0.463456 -6.914093 -1.738639 -0.396982 -3.718045 -7.142167 -0.357825 1.942482 7.889758 -12.720246 -8.503675 -2.204504 -0.163741 -0.214555 0.000000 0.000000 0.000000 -2.096409 19.302207 2.003366 -65.429879 10.187199 -10.301104 -3.490269 -29.644898 0.018419 9.534184 -3.675217 -0.304412 -0.111731 -0.059923 -0.000000 0.000000 0.000000 0.000000 0.000000 0.000000 0.000000 3.580968 -6.935352 -4.841172 81.793376 18.102424 18.966080 -179.376519 71.806370 179.889539 -10.009790 12.127541 -1.150870 0.115748 -0.819957 -0.000000 0.000000 0.000000 0.000000 0.000000 0.000000 0.000000 
1.780782 17.297619 -0.125774 168.412163 -54.550231 -153.325697 -8.095564 -0.801630 4.698724 -11.467912 -28.405327 -40.225769 1.826515 2.375582 65.423784 4.610707 30.457600 20.987686 14.909699 -0.000000 -44.765100 10.357915 0.290379 3.058220 4.443435 12.522486 -24.396360 0.636681 -0.475902 20.150901 -3.039214 -11.482777 -11.803772 0.091600 -0.000001 -37.071800 -4.428109 -0.347860 -6.792723 -1.770417 -0.266777 -3.700270 -7.106707 -0.228006 1.935969 7.736852 -12.632634 -8.505015 -2.197158 -0.162959 -0.219778 0.000000 0.000000 0.000000 -2.186522 19.562637 2.007360 -65.689149 10.342502 -10.491324 -3.480524 -29.607194 0.018521 9.452075 -3.656691 -0.300023 -0.110439 -0.061912 -0.000000 0.000000 0.000000 0.000000 0.000000 0.000000 0.000000 3.387487 -6.775496 -4.865116 81.743450 18.400320 19.180147 -179.363610 71.555975 179.889052 -10.008258 12.086727 -1.147379 0.116259 -0.822873 -0.000000 0.000000 0.000000 0.000000 0.000000 0.000000 0.000000 
